<?xml version="1.0" encoding="utf-8"?>
<!-- Generator: Adobe Illustrator 25.4.1, SVG Export Plug-In . SVG Version: 6.00 Build 0)  -->
<svg version="1.1" id="Layer_1" xmlns="http://www.w3.org/2000/svg" xmlns:xlink="http://www.w3.org/1999/xlink" x="0px" y="0px"
	 viewBox="0 0 30 30" style="enable-background:new 0 0 30 30;" xml:space="preserve">
<style type="text/css">
	.st0{fill-rule:evenodd;clip-rule:evenodd;fill:#242424;}
	.st1{fill:#242424;}
	.st2{fill:#FCE925;}
	.st3{fill-rule:evenodd;clip-rule:evenodd;fill:#FCE925;}
	.st4{fill:#242424;stroke:#242424;stroke-width:2;stroke-miterlimit:10;}
	.st5{fill:#242424;stroke:#242424;stroke-linecap:round;stroke-linejoin:round;stroke-miterlimit:10;}
</style>
<path class="st1" d="M15,0C6.73,0,0,6.74,0,15.04c0,4,1.56,7.76,4.4,10.58C7.23,28.44,10.99,30,15,30h0c4.01,0,7.77-1.56,10.6-4.38
	c2.83-2.83,4.4-6.59,4.4-10.58C30,6.74,23.27,0,15,0z M27.13,19.23h-3.47c0.23-1.33,0.35-2.73,0.35-4.19c0-1.49-0.13-2.91-0.36-4.26
	h3.46c0.47,1.34,0.74,2.77,0.74,4.26C27.85,16.49,27.59,17.89,27.13,19.23z M8.14,15.03c0-1.49,0.15-2.92,0.41-4.26h5.37v8.45H8.54
	C8.29,17.9,8.14,16.5,8.14,15.03z M16.08,2.34c2.04,0.63,3.8,3.02,4.83,6.28h-4.83V2.34z M13.92,2.34v6.28H9.09
	C10.12,5.36,11.89,2.97,13.92,2.34z M13.92,21.38v6.28c-2.05-0.63-3.82-3.02-4.84-6.28H13.92z M16.08,27.66v-6.28h4.84
	C19.89,24.64,18.12,27.03,16.08,27.66z M16.08,19.23v-8.45h5.38c0.26,1.34,0.41,2.77,0.41,4.26c0,1.46-0.15,2.87-0.4,4.19H16.08z
	 M26.12,8.62h-2.95c-0.54-1.94-1.31-3.64-2.26-5.01C23.09,4.75,24.9,6.49,26.12,8.62z M9.09,3.61C8.14,4.98,7.37,6.68,6.83,8.62
	H3.88C5.1,6.49,6.91,4.75,9.09,3.61z M2.89,10.77h3.46c-0.23,1.35-0.36,2.77-0.36,4.26c0,1.46,0.13,2.86,0.35,4.19H2.87
	c-0.46-1.33-0.72-2.74-0.72-4.19C2.15,13.54,2.42,12.11,2.89,10.77z M3.85,21.38h2.97c0.54,1.95,1.31,3.66,2.27,5.03
	c-1.16-0.6-2.23-1.37-3.18-2.32C5.09,23.27,4.41,22.36,3.85,21.38z M24.09,24.09c-0.95,0.95-2.02,1.72-3.18,2.32
	c0.96-1.37,1.74-3.08,2.27-5.03h2.97C25.59,22.36,24.91,23.27,24.09,24.09z"/>
</svg>
