<svg height="26" viewBox="0 0 132 26" width="132" xmlns="http://www.w3.org/2000/svg"><g fill="none" fill-rule="evenodd"><g fill="#fdbb30"><path d="m10.8515337 3.56319018c-5.8306748 0-10.52760732 4.69693252-10.52760732 10.52760732 0 5.8306749 4.69693252 10.5276074 10.52760732 10.5276074 5.8306749 0 10.5276074-4.6969325 10.5276074-10.5276074 0-5.74969321-4.6969325-10.52760732-10.5276074-10.52760732zm5.1018405 15.62944782c-1.3766871 1.3766872-3.1582822 2.1055215-5.1018405 2.1055215-1.94355824 0-3.72515333-.7288343-5.10184045-2.1055215-1.37668712-1.3766871-2.10552147-3.1582822-2.10552147-5.1018405 0-1.9435582.72883435-3.7251533 2.10552147-5.10184044 1.37668712-1.37668712 3.15828221-2.10552148 5.10184045-2.10552148 1.9435583 0 3.7251534.72883436 5.1018405 2.10552148 1.3766871 1.37668714 2.1055215 3.15828224 2.1055215 5.10184044 0 1.9435583-.7288344 3.7251534-2.1055215 5.1018405z"/><path d="m22.35092 1.943558h1v1h-1z"/><path d="m22.35092.323926h1v1h-1z"/><path d="m20.002454 2.753374h1v1h-1z"/></g><g fill="#000" fill-rule="nonzero" transform="translate(5.668712 .809816)"><path d="m12.876074 3.56319h1v1h-1z"/><path d="m15.143558 2.753374h1v1h-1z"/><path d="m12.066258 2.834356h1v1h-1z"/><path d="m14.333742 3.56319h1v1h-1z"/><path d="m15.872393.323926h1v1h-1z"/><path d="m14.333742 1.133742h1.53865v1h-1.53865z"/><path d="m13.604908 1.943558h1v1.53865h-1z"/><path d="m13.604908 5.10184049h-.809816v-.80981595h-1.2957055v.56687117h-.6478528v.64785276h.7288344v.72883435h-.7288344v-.64785276h-.8098159v1.21472393h-.80981596v.72883435h-.48588957v.72883436h-.56687117c-.64785276.97177914-2.18650306 3.8871166-2.67239263 5.0208589-1.7006135-2.4294479-3.07730062-3.3202454-4.13006135-3.72515338-.56687117-.16196319-1.29570552.48588958-.32392638 1.45766868 2.18650306 2.3484663 2.83435582 4.3730062 3.48220859 5.9116565.32392638.8098159 1.94355828.9717791 2.26748466.0809816.64785276-1.7815951 1.6196319-3.806135 2.75337423-5.4257669v-.8907975h.64785278v-.809816h.6478527v-.89079754h.809816v-.89079755h-.809816v-.80981595h.809816v.80981595h.7288343v-.80981595h.6478528v-.72883436h.6478528v-.64785276h.6478527v-1.6196319h-.7288343z"/><path d="m56.0392638 11.8233129c-.3239264-.3239264-.8098159-.6478528-1.2957055-.809816s-1.0527608-.3239263-1.7006135-.3239263c-.6478528 0-1.2147239.0809815-1.7006135.3239263-.4858896.1619632-.9717792.4858896-1.2957055.809816-.3239264.3239264-.6478528.8098159-.809816 1.2957055s-.3239264 1.1337423-.3239264 1.7815951.0809816 1.2147239.3239264 1.7006135c.1619632.4858896.4858896.9717791.809816 1.2957055.3239263.3239264.8098159.6478528 1.2957055.809816s1.0527607.3239263 1.7006135.3239263c.6478527 0 1.2147239-.0809815 1.7006135-.3239263.4858896-.1619632.9717791-.4858896 1.2957055-.809816s.6478528-.8098159.809816-1.2957055c.1619631-.4858896.3239263-1.1337423.3239263-1.7006135 0-.6478528-.0809816-1.2147239-.3239263-1.7815951-.1619632-.4858896-.404908-.9717791-.809816-1.2957055zm-1.0527607 4.0490797c-.0809816.3239264-.1619632.6478528-.3239264.8907976s-.404908.4858896-.6478528.6478527c-.2429448.1619632-.6478527.2429448-.9717791.2429448-.404908 0-.7288344-.0809816-.9717792-.2429448-.2429447-.1619631-.4858895-.3239263-.6478527-.6478527-.1619632-.2429448-.2429448-.5668712-.3239264-.8907976-.0809816-.3239263-.0809816-.6478527-.0809816-.9717791s0-.6478528.0809816-.9717791c.0809816-.3239264.1619632-.6478528.3239264-.8907976s.404908-.4858896.6478527-.6478528c.2429448-.1619631.5668712-.2429447.9717792-.2429447s.7288343.0809816.9717791.2429447c.2429448.1619632.4858896.404908.6478528.6478528s.2429448.5668712.3239264.8907976c.0809816.3239263.0809816.6478527.0809816.9717791.0809816.3239264 0 .6478528-.0809816.9717791z"/><path d="m65.1092025 11.4993865c-.2429448-.2429448-.4858896-.4858896-.8907976-.6478528-.404908-.1619631-.8907975-.2429447-1.4576687-.2429447-.4858896 0-.8907975.0809816-1.3766871.3239263-.404908.2429448-.8907976.5668712-1.2147239.9717792v.0809816s0 0-.0809816 0 0 0 0 0v-1.1337424h-1.9435583v8.017178h2.1055214v-4.211043c0-.8098159.1619632-1.4576687.404908-1.8625767.3239264-.404908.7288344-.5668711 1.3766871-.5668711.5668712 0 .9717792.1619631 1.214724.5668711.2429448.3239264.3239263.8907976.3239263 1.5386503v4.5349694h2.1055215v-4.9398773c0-.4858896-.0809816-.9717792-.1619632-1.3766872 0-.4049079-.1619632-.7288343-.4049079-1.0527607z"/><path d="m26.4809816 15.5484663-4.8588957-7.77423317h-2.2674847v11.09447857h2.0245399v-7.7742332l.1619632.2429448 4.7779141 7.5312884h2.2674847v-11.09447857h-2.1055215z"/><path d="m36.6846626 11.8233129c-.3239264-.3239264-.809816-.6478528-1.2957055-.809816-.4858896-.1619632-1.0527608-.3239263-1.7006135-.3239263-.6478528 0-1.214724.0809815-1.7006135.3239263-.4858896.1619632-.9717792.4858896-1.2957056.809816-.3239263.3239264-.6478527.8098159-.8098159 1.2957055s-.3239264 1.1337423-.3239264 1.7815951.0809816 1.2147239.3239264 1.7006135c.1619632.4858896.4858896.9717791.8098159 1.2957055.3239264.3239264.809816.6478528 1.2957056.809816.4858895.1619632 1.0527607.3239263 1.7006135.3239263.6478527 0 1.2147239-.0809815 1.7006135-.3239263.4858895-.1619632.9717791-.4858896 1.2957055-.809816s.6478527-.8098159.8098159-1.2957055.3239264-1.1337423.3239264-1.7006135c0-.6478528-.0809816-1.2147239-.3239264-1.7815951-.1619632-.4858896-.4049079-.9717791-.8098159-1.2957055zm-1.0527608 4.0490797c-.0809816.3239264-.1619631.6478528-.3239263.8907976s-.404908.4858896-.6478528.6478527c-.2429448.1619632-.6478528.2429448-.9717791.2429448-.404908 0-.7288344-.0809816-.9717792-.2429448-.2429448-.1619631-.4858896-.3239263-.6478527-.6478527-.1619632-.2429448-.2429448-.5668712-.3239264-.8907976-.0809816-.3239263-.0809816-.6478527-.0809816-.9717791s0-.6478528.0809816-.9717791c.0809816-.3239264.1619632-.6478528.3239264-.8907976.1619631-.2429448.4049079-.4858896.6478527-.6478528.2429448-.1619631.5668712-.2429447.9717792-.2429447.4049079 0 .7288343.0809816.9717791.2429447.2429448.1619632.4858896.404908.6478528.6478528s.2429447.5668712.3239263.8907976c.0809816.3239263.0809816.6478527.0809816.9717791s0 .6478528-.0809816.9717791z"/><path d="m46.7263804 8.50306748h-2.1055215v2.34846622h-.5668712s-.9717791 0-1.8625767.2429448c-.5668711.1619632-.9717791.5668712-1.2957055 1.0527608-.0809816.0809816-.0809816.2429447-.1619632.3239263 0 0 0 0-.0809816 0s0 0 0 0v-1.5386503h-1.9435582v8.017178h2.1055214v-3.5631902c0-.404908 0-.7288344.0809816-1.0527608.0809816-.2429448.0809816-.4049079.2429448-.5668711.404908-.5668712 1.2147239-1.214724 2.9153374-1.214724h.4858896l-.0809816 4.615951c0 .4049079.0809816.7288343.1619632.9717791.1619632.2429448.3239264.404908.5668712.5668712.2429447.1619632.4858895.2429448.8098159.2429448.3239264.0809815.6478528.0809815.9717792.0809815h.6478527c.1619632 0 .404908 0 .5668712-.0809815v-1.5386504c-.0809816 0-.1619632 0-.2429448 0s-.2429448 0-.404908 0c-.404908 0-.6478527-.0809816-.8098159-.2429447-.1619632-.1619632-.2429448-.404908-.2429448-.809816v-3.8871166h1.6196319v-1.7006135h-1.6196319z"/><path d="m70.3730061 8.66503067h-2.4294478v10.12269943h7.3693251v-1.8625767h-4.9398773z"/><path d="m76.365644 10.851534h2.267485v8.017178h-2.267485z"/><path d="m76.365644 7.774233h2.267485v1.943558h-2.267485z"/><path d="m81.4674847 8.58404908c-.3239264.32392638-.4858896.89079755-.4858896 1.86257672v.4049079h-1.2147239v1.7815951h1.2147239v6.2355829h2.2674847v-6.2355829h1.7006135v-1.7006135h-1.7006135v-.4049079c0-.404908 0-.5668712.0809815-.6478528.0809816-.08098159.1619632-.08098159.4858896-.08098159h1.1337424v-1.7006135h-1.8625767c-.8907976 0-1.214724.16196319-1.6196319.48588957z"/><path d="m90.7803681 10.8515337h-2.7533742c-.809816 0-1.2957056.1619632-1.6196319.4858896-.5668712.5668712-.7288344 1.1337423-.7288344 3.4822086s.2429448 2.996319.7288344 3.4822086c.3239263.3239264.8098159.4858896 1.6196319.4858896h3.0773006c.8907975 0 1.2147239-.2429448 1.4576687-.4858896.404908-.404908.5668712-.8907976.5668712-2.0245399h-2.1055215c0 .5668712-.0809816.6478528-.0809816.7288344-.0809816.0809816-.2429448.1619632-.6478528.1619632h-1.3766871c-.404908 0-.6478527 0-.7288343-.1619632-.0809816-.0809816-.1619632-.3239264-.1619632-1.6196319h4.8588957c.2429448 0 .3239264-.0809816.3239264-.3239264v-.404908c0-2.2674847-.0809816-2.9153374-.6478528-3.4822086-.5668712-.2429448-.9717792-.3239264-1.7815951-.3239264zm-2.996319 3.2392638c0-1.1337423.0809816-1.3766871.1619632-1.4576687s.3239264-.1619632.7288343-.1619632h1.214724c.4858895 0 .5668711.0809816.6478527.1619632s.1619632.404908.1619632 1.4576687z"/><path d="m95.4773006 8.66503067h-1.1337423v10.12269943h6.4785277v-.9717792h-5.3447854z"/><path d="m105.923926 11.0134969h-2.105521c-.809816 0-1.295706.0809816-1.619632.404908-.48589.4858896-.647853 1.1337423-.647853 3.4822086s.161963 2.996319.647853 3.4822086c.323926.3239264.809816.404908 1.619632.404908h2.105521c.809816 0 1.295706-.0809816 1.619632-.404908.48589-.4858896.728835-1.1337423.728835-3.4822086s-.161964-2.9153374-.728835-3.4822086c-.323926-.3239264-.809816-.404908-1.619632-.404908zm.809816 6.6404908c-.161963.1619632-.404908.2429448-.971779.2429448h-1.862576c-.566872 0-.809816-.0809816-.97178-.2429448-.242944-.2429448-.323926-.6478527-.323926-2.7533742s.080982-2.5104295.323926-2.6723926c.161964-.1619632.404908-.2429448.97178-.2429448h1.862576c.566871 0 .809816.0809816.971779.2429448.242945.2429447.404908.6478527.404908 2.6723926 0 2.1055215-.161963 2.5104294-.404908 2.7533742z"/><path d="m114.426994 17.6539877c-.161963.1619632-.404908.2429448-.890798.2429448h-1.781595c-.566871 0-.809816-.0809816-.971779-.2429448-.242945-.2429448-.323926-.6478527-.323926-2.7533742s.080981-2.5104295.323926-2.6723926c.161963-.1619632.404908-.2429448.971779-.2429448h1.781595c.48589 0 .647853.0809816.809816.2429448.161963.1619631.242945.4049079.323927 1.3766871h1.05276c0-1.2957055-.161963-1.7815951-.566871-2.1865031-.323926-.3239264-.647853-.404908-1.457668-.404908h-2.105522c-.809816 0-1.295705.0809816-1.619632.404908-.485889.4858896-.647853 1.1337423-.647853 3.4822086s.161964 2.996319.647853 3.4822086c.323927.3239264.809816.404908 1.619632.404908h2.105522c.728834 0 1.133742-.0809816 1.376687-.404908.404908-.404908.566871-.809816.566871-2.2674847h-1.052761c.080982 1.0527608 0 1.3766871-.161963 1.5386503z"/><path d="m123.173006 11.0134969h-1.295705l-2.996319 3.401227h-.809816v-6.07361961h-1.052761v10.44662581h1.052761v-3.4822086h.809816l2.996319 3.4822086h1.457668l-3.56319-3.9680982z"/><path d="m125.845399 10.6895706-.242945.9717791-.242945-.9717791h-.485889v1.2957055h.323926v-.9717792l.242945.9717792h.242945l.323926-.9717792v.9717792h.242945v-1.2957055z"/><path d="m123.658896 10.9325153h.323926v1.0527608h.323926v-1.0527608h.323927v-.2429447h-.971779z"/></g></g></svg>